# xmcd
#
# Track frame offsets:
#	150
#	11515
#	22535
#	33419
#	44959
#	60427
#	73486
#	90394
#	108323
#	118484
#	128554
#	139434
#	149395
#	162032
#	171022
#	187930
#	197481
#	204976
#	215526
#	228224
#	237573
#	247914
#	256502
#	266767
#	279384
#	291340
#	303807
#
# Disc length: 4218
#
# Revision: 3
# Processed by: cddbd v1.5.1PL0 Copyright (c) Steve Scherf et al.
# Submitted via: CDex 1.40Beta3
# Normalized: r2:TDELIM( - )
#
DISCID=8010781b
DTITLE=Rockabilly Hall of Fame - Volume 2
DYEAR=1900
DGENRE=Country
TTITLE0=Bop To Be - Billy Swan
TTITLE1=Too Much Fun - Buddy Knox
TTITLE2=I'm Heading Home - Narvel Felts
TTITLE3=So Long, I'm Gone - Wayne Keeling
TTITLE4=Old Time Rock and Roller - Joe Bennett
TTITLE5=Get In, Sit Down, Shut Up - Doe Weise
TTITLE6=Rockin' In The Shadow of Sun - Alton and Jimmy
TTITLE7=Raised On Music - Ronnie Haig
TTITLE8=Ain't That a Shame - Mac Curtis
TTITLE9=Rock and Roll Record Girl - Bobby Poe
TTITLE10=Wrapped up in Rockabilly - Johnny Meeks
TTITLE11=Important Words - Piper Vincent
TTITLE12=The Cream of The Crop - Marco DiMaggio
TTITLE13=Hip Shakin' Baby - The Convertibles
TTITLE14=Pantyhose - Adjusters
TTITLE15=Hillbilly Cat - Hillbilly Hellcats
TTITLE16=Take Me Baby - Dave Crimmen
TTITLE17=Take These Chains - Piper Vincent
TTITLE18=Long Dark Nights - Josie Kreuzer
TTITLE19=Cutie Pie - Ken Davis
TTITLE20=King of Saturday Night - Bughouse Five
TTITLE21=Real Gone Daddy - Tony Maserati
TTITLE22=Studebaker Blues - Chuck Owston
TTITLE23=Hit and Run - Highway 13
TTITLE24=Hot Chicks - Nick Gilroy Kombo
TTITLE25=Sad and Blue - DiMaggio Bros
TTITLE26=Vegas - Kenny King and Bob Timmers
EXTD=ID3G:   2
EXTT0=
EXTT1=
EXTT2=
EXTT3=
EXTT4=
EXTT5=
EXTT6=
EXTT7=
EXTT8=
EXTT9=
EXTT10=
EXTT11=
EXTT12=
EXTT13=
EXTT14=
EXTT15=
EXTT16=
EXTT17=
EXTT18=
EXTT19=
EXTT20=
EXTT21=
EXTT22=
EXTT23=
EXTT24=
EXTT25=
EXTT26=
PLAYORDER=
